<svg id="svg" fill="#000000" stroke="#000000" width="200px" height="200px" version="1.1" viewBox="144 144 512 512" xmlns="http://www.w3.org/2000/svg">
    <g id="IconSvg_bgCarrier" stroke-width="0"></g>
    <g id="IconSvg_tracerCarrier" stroke-linecap="round" stroke-linejoin="round" stroke="#CCCCCC"></g>
     <g id="IconSvg_iconCarrier">
      <path xmlns="http://www.w3.org/2000/svg" d="m620.41 163.84h-440.83c-4.1758 0-8.1797 1.6602-11.133 4.6133s-4.6133 6.957-4.6133 11.133v440.83c0 4.1758 1.6602 8.1797 4.6133 11.133s6.957 4.6133 11.133 4.6133h440.83c4.1758 0 8.1797-1.6602 11.133-4.6133s4.6133-6.957 4.6133-11.133v-440.83c0-4.1758-1.6602-8.1797-4.6133-11.133s-6.957-4.6133-11.133-4.6133zm-393.6 440.84h-31.488v-31.488h31.488zm0-62.977h-31.488v-31.488h31.488zm0-62.977h-31.488v-31.488h31.488zm0-62.977h-31.488v-31.488h31.488zm0-62.977h-31.488v-31.488h31.488zm0-62.977h-31.488v-31.488h31.488zm0-62.977h-31.488v-31.488h31.488zm244.04 186.88-125.95 72.578v0.003906c-4.8711 2.8125-10.871 2.8125-15.746 0-4.8398-2.7969-7.8359-7.9492-7.8711-13.543v-145.47c0.035156-5.5898 3.0312-10.746 7.8711-13.539 2.3945-1.3828 5.1094-2.1094 7.875-2.1094 2.7617 0 5.4766 0.72656 7.8711 2.1094l125.95 72.578c3.2461 1.8398 5.7305 4.7734 7.0156 8.2734 1.2852 3.5039 1.2852 7.3477 0 10.848-1.2852 3.5039-3.7695 6.4336-7.0156 8.2734zm133.82 190.98h-31.488v-31.488h31.488zm0-62.977h-31.488v-31.488h31.488zm0-62.977h-31.488v-31.488h31.488zm0-62.977h-31.488v-31.488h31.488zm0-62.977h-31.488v-31.488h31.488zm0-62.977h-31.488v-31.488h31.488zm0-62.977h-31.488v-31.488h31.488z"></path>

      </g>
      </svg>